<svg xmlns="http://www.w3.org/2000/svg" width="1024" height="1024" viewBox="0 0 1024 1024">
  <defs>
    <!-- Background -->
    <radialGradient id="bgRad" cx="78%" cy="18%" r="95%">
      <stop offset="0%" stop-color="#1b6c66"/>
      <stop offset="35%" stop-color="#0e2d3f"/>
      <stop offset="70%" stop-color="#061526"/>
      <stop offset="100%" stop-color="#040e1c"/>
    </radialGradient>

    <!-- Neon stroke gradients -->
    <linearGradient id="neonCyan" x1="0" y1="0" x2="1" y2="1">
      <stop offset="0%" stop-color="#3fe8ff"/>
      <stop offset="55%" stop-color="#20c9ff"/>
      <stop offset="100%" stop-color="#35ffde"/>
    </linearGradient>

    <linearGradient id="neonGreen" x1="0" y1="1" x2="1" y2="0">
      <stop offset="0%" stop-color="#a6ff5a"/>
      <stop offset="60%" stop-color="#63ff8a"/>
      <stop offset="100%" stop-color="#35d7ff"/>
    </linearGradient>

    <!-- Tile gradient -->
    <linearGradient id="tileFill" x1="0" y1="0" x2="1" y2="1">
      <stop offset="0%" stop-color="#0b3a55"/>
      <stop offset="45%" stop-color="#12708a"/>
      <stop offset="100%" stop-color="#2bbf63"/>
    </linearGradient>

    <linearGradient id="tileInner" x1="0" y1="0" x2="1" y2="1">
      <stop offset="0%" stop-color="#072334" stop-opacity="0.65"/>
      <stop offset="100%" stop-color="#0a5f3c" stop-opacity="0.55"/>
    </linearGradient>

    <!-- Printer gradient -->
    <linearGradient id="printerBody" x1="0" y1="0" x2="1" y2="1">
      <stop offset="0%" stop-color="#143f63"/>
      <stop offset="60%" stop-color="#0e2d4d"/>
      <stop offset="100%" stop-color="#0a1f3a"/>
    </linearGradient>

    <linearGradient id="paper" x1="0" y1="0" x2="0" y2="1">
      <stop offset="0%" stop-color="#f6fbff"/>
      <stop offset="100%" stop-color="#cfe7f2"/>
    </linearGradient>

    <!-- Glow filters -->
    <filter id="glowCyan" x="-30%" y="-30%" width="160%" height="160%">
      <feGaussianBlur stdDeviation="6" result="b"/>
      <feColorMatrix in="b" type="matrix"
        values="0 0 0 0 0
                0 0 0 0 0.85
                0 0 0 0 1
                0 0 0 0.9 0" result="c"/>
      <feMerge>
        <feMergeNode in="c"/>
        <feMergeNode in="SourceGraphic"/>
      </feMerge>
    </filter>

    <filter id="glowGreen" x="-30%" y="-30%" width="160%" height="160%">
      <feGaussianBlur stdDeviation="6" result="b"/>
      <feColorMatrix in="b" type="matrix"
        values="0 0 0 0 0.45
                0 0 0 0 1
                0 0 0 0 0.55
                0 0 0 0.9 0" result="c"/>
      <feMerge>
        <feMergeNode in="c"/>
        <feMergeNode in="SourceGraphic"/>
      </feMerge>
    </filter>

    <filter id="softShadow" x="-30%" y="-30%" width="160%" height="160%">
      <feGaussianBlur stdDeviation="10" result="b"/>
      <feOffset dy="6" result="o"/>
      <feColorMatrix in="o" type="matrix"
        values="0 0 0 0 0
                0 0 0 0 0
                0 0 0 0 0
                0 0 0 0.55 0" result="s"/>
      <feMerge>
        <feMergeNode in="s"/>
        <feMergeNode in="SourceGraphic"/>
      </feMerge>
    </filter>

    <!-- Text styles -->
    <filter id="textEmboss" x="-20%" y="-20%" width="140%" height="140%">
      <feGaussianBlur stdDeviation="2" result="b"/>
      <feOffset dx="0" dy="2" result="o"/>
      <feColorMatrix in="o" type="matrix"
        values="0 0 0 0 0
                0 0 0 0 0
                0 0 0 0 0
                0 0 0 0.65 0" result="s"/>
      <feMerge>
        <feMergeNode in="s"/>
        <feMergeNode in="SourceGraphic"/>
      </feMerge>
    </filter>

    <linearGradient id="vGreen" x1="0" y1="0" x2="1" y2="0">
      <stop offset="0%" stop-color="#b7ff63"/>
      <stop offset="100%" stop-color="#66ff7e"/>
    </linearGradient>
  </defs>

  <!-- Background -->
  <rect width="1024" height="1024" fill="url(#bgRad)"/>

  <!-- Outer neon ring -->
  <circle cx="512" cy="512" r="370"
          fill="none" stroke="url(#neonCyan)" stroke-width="12"
          opacity="0.95" filter="url(#glowCyan)"/>

  <!-- Inner neon ring -->
  <circle cx="512" cy="512" r="305"
          fill="none" stroke="url(#neonGreen)" stroke-width="10"
          opacity="0.92" filter="url(#glowGreen)"/>

  <!-- Center tile -->
  <g filter="url(#softShadow)">
    <rect x="312" y="275" width="400" height="400" rx="42"
          fill="url(#tileFill)" opacity="0.95"/>
    <!-- inner sheen -->
    <rect x="330" y="293" width="364" height="364" rx="36"
          fill="url(#tileInner)"/>
    <!-- neon border -->
    <rect x="312" y="275" width="400" height="400" rx="42"
          fill="none" stroke="url(#neonCyan)" stroke-width="8"
          opacity="0.7" filter="url(#glowCyan)"/>
    <rect x="316" y="279" width="392" height="392" rx="40"
          fill="none" stroke="url(#neonGreen)" stroke-width="6"
          opacity="0.55" filter="url(#glowGreen)"/>
  </g>

  <!-- Printer icon -->
  <g>
    <!-- top paper -->
    <rect x="430" y="330" width="164" height="110" rx="10" fill="url(#paper)"/>
    <rect x="445" y="348" width="134" height="10" rx="5" fill="#e8f5fb" opacity="0.7"/>

    <!-- printer back plate -->
    <rect x="405" y="395" width="214" height="135" rx="18"
          fill="#0a2038" opacity="0.55"/>

    <!-- printer body -->
    <rect x="360" y="410" width="304" height="175" rx="28"
          fill="url(#printerBody)" filter="url(#softShadow)"/>

    <!-- printer slot -->
    <rect x="410" y="505" width="204" height="44" rx="10"
          fill="#071a2f" opacity="0.85"/>

    <!-- status light -->
    <rect x="384" y="438" width="26" height="26" rx="8"
          fill="#9cff5b" filter="url(#glowGreen)"/>

    <!-- paper output -->
    <rect x="440" y="560" width="144" height="120" rx="10" fill="url(#paper)"/>
    <!-- lines on paper -->
    <rect x="462" y="600" width="100" height="8" rx="4" fill="#39d4ff" opacity="0.9"/>
    <rect x="462" y="624" width="112" height="8" rx="4" fill="#39d4ff" opacity="0.75"/>
    <rect x="462" y="648" width="92" height="8" rx="4" fill="#39d4ff" opacity="0.6"/>
  </g>

  <!-- QR code block (stylized) -->
  <g transform="translate(615 420)">
    <rect x="0" y="0" width="175" height="175" rx="14"
          fill="none" stroke="url(#neonGreen)" stroke-width="6"
          opacity="0.6" filter="url(#glowGreen)"/>
    <g opacity="0.95">
      <!-- finder squares -->
      <rect x="14" y="14" width="48" height="48" fill="none" stroke="#35d7ff" stroke-width="8"/>
      <rect x="22" y="22" width="32" height="32" fill="#35d7ff" opacity="0.25"/>
      <rect x="113" y="14" width="48" height="48" fill="none" stroke="#9cff5b" stroke-width="8"/>
      <rect x="121" y="22" width="32" height="32" fill="#9cff5b" opacity="0.22"/>
      <rect x="14" y="113" width="48" height="48" fill="none" stroke="#9cff5b" stroke-width="8"/>
      <rect x="22" y="121" width="32" height="32" fill="#9cff5b" opacity="0.22"/>

      <!-- random modules (stylized) -->
      <g fill="#35d7ff">
        <rect x="78" y="22" width="10" height="10"/>
        <rect x="92" y="36" width="10" height="10"/>
        <rect x="78" y="50" width="10" height="10"/>
        <rect x="78" y="78" width="10" height="10"/>
        <rect x="92" y="92" width="10" height="10"/>
        <rect x="106" y="78" width="10" height="10"/>
        <rect x="78" y="120" width="10" height="10"/>
        <rect x="92" y="134" width="10" height="10"/>
      </g>
      <g fill="#9cff5b">
        <rect x="106" y="106" width="10" height="10"/>
        <rect x="120" y="92" width="10" height="10"/>
        <rect x="134" y="106" width="10" height="10"/>
        <rect x="120" y="120" width="10" height="10"/>
        <rect x="106" y="134" width="10" height="10"/>
        <rect x="148" y="78" width="10" height="10"/>
        <rect x="148" y="92" width="10" height="10"/>
      </g>
    </g>
  </g>

  <!-- Bottom text -->
  <g filter="url(#textEmboss)">
   <!-- Lighter KIOSK text -->
<text x="512" y="800" text-anchor="middle"
      font-family="system-ui, -apple-system, Segoe UI, Roboto, Arial, sans-serif"
      font-size="120" font-weight="900"
      fill="#a8f7ff"
      filter="url(#glowCyan)">
  KIOSK
</text>
    <!-- subtle inner stroke -->
    <text x="512" y="800" text-anchor="middle"
          font-family="system-ui, -apple-system, Segoe UI, Roboto, Arial, sans-serif"
          font-size="120" font-weight="800"
          fill="none" stroke="#123a55" stroke-width="2" opacity="0.55">
      KIOSK
    </text>

    <text x="610" y="885" text-anchor="middle"
          font-family="system-ui, -apple-system, Segoe UI, Roboto, Arial, sans-serif"
          font-size="96" font-weight="900"
          fill="url(#vGreen)" filter="url(#glowGreen)">
      V2.0
    </text>
  </g>

  <!-- tiny sparkle bottom-right -->
</svg>